<svg preserveAspectRatio="none" width="100%" height="100%" overflow="visible" style="display: block;" viewBox="0 0 167.966 64.9118" fill="none" xmlns="http://www.w3.org/2000/svg">
<g id="vecteezy_formula-1-logo-racing_ 1 [Vectorized]">
<path id="Vector" d="M65.321 15.3095C67.7555 15.2005 70.6503 15.2655 73.1123 15.2654L86.7646 15.2649L128.396 15.265C127.085 16.4412 125.247 18.3881 123.961 19.6741L115.499 28.13L83.8457 28.132L72.3468 28.141C67.5277 28.1505 62.4573 27.9122 57.8147 29.2958C56.475 29.7396 55.2134 30.3917 54.0764 31.2282C51.6733 32.984 48.1441 36.5492 45.9532 38.6742L34.6187 49.6496L15.2554 49.641L30.9341 34.0536L36.4444 28.5627C46.7119 18.2785 50.5301 15.6654 65.321 15.3095Z" fill="var(--fill-0, #FDFDFD)"/>
<path id="Vector_2" d="M70.2601 30.2388C75.1928 30.1586 80.3039 30.225 85.2525 30.2248L113.41 30.2274C112.031 31.5154 110.544 33.072 109.199 34.4168L101.38 42.236L74.2462 42.2236C71.1961 42.2241 66.2184 41.9255 63.4529 43.1038C60.9411 44.174 58.3119 47.9257 56.1159 49.6499L38.1139 49.6435C41.2148 46.4639 44.4529 43.3332 47.5844 40.1681C49.8431 37.9563 52.0438 35.6205 54.4685 33.5927C58.7159 30.0406 65.0583 30.3101 70.2601 30.2388Z" fill="var(--fill-0, #FDFDFD)"/>
<path id="Vector_3" d="M132.024 15.2651L152.691 15.268C149.216 18.587 145.572 22.3733 142.146 25.8L118.283 49.6475L97.5844 49.6438C109.155 38.3512 120.448 26.5357 132.024 15.2651Z" fill="var(--fill-0, #FDFDFD)"/>
</g>
</svg>
