<svg preserveAspectRatio="none" width="100%" height="100%" overflow="visible" style="display: block;" viewBox="0 0 120.889 20.6386" fill="none" xmlns="http://www.w3.org/2000/svg">
<g id="Group 41">
<path id="Vector" d="M108.397 0.102211C109.929 -0.0965514 111.549 0.14615 112.938 0.639071C117.208 2.15445 119.584 6.1608 119.427 10.6097C119.372 12.1622 119.396 13.9856 119.499 15.5398C119.541 16.174 120.47 17.1471 120.713 17.7332C121.47 19.3473 119.633 21.2176 117.99 20.4682C116.825 19.9366 116.134 18.7681 115.681 17.6204C115.114 18.0365 114.522 18.4168 113.909 18.7593C112.744 19.2944 111.75 19.654 110.454 19.7913C107.804 20.0834 105.147 19.2993 103.079 17.6149C101.152 16.0481 99.8005 13.5999 99.5544 11.1229C99.2674 8.38206 100.097 5.64119 101.855 3.51948C103.488 1.53205 105.854 0.358068 108.397 0.102211ZM110.333 15.7966C113.548 15.2975 115.751 12.2859 115.253 9.06914C114.756 5.85233 111.746 3.64786 108.53 4.1448C105.312 4.64193 103.107 7.65454 103.605 10.8728C104.103 14.0911 107.116 16.2959 110.333 15.7966Z" fill="var(--fill-0, white)"/>
<path id="Vector_2" d="M45.8028 0.0654677C51.2965 -0.562057 56.2554 3.39239 56.8682 8.8895C57.481 14.3866 53.5148 19.3366 48.0179 19.9352C42.5414 20.5315 37.6154 16.582 37.0048 11.1053C36.3943 5.62868 40.3295 0.690659 45.8028 0.0654677ZM47.4932 16.0301C50.8306 15.7123 53.2704 12.7359 52.9281 9.39992C52.5859 6.06386 49.5927 3.6452 46.2603 4.01207C42.9624 4.37512 40.5749 7.33167 40.9136 10.6332C41.2523 13.9348 44.1903 16.3447 47.4932 16.0301Z" fill="var(--fill-0, white)"/>
<path id="Vector_3" d="M2.07953 0.0994298C4.8501 0.0677392 4.26457 2.74944 4.49935 4.48361C4.90174 7.45604 5.69899 10.5552 7.21006 13.1621C10.306 18.5033 11.994 12.4589 13.7558 10.0061C14.7648 8.41816 16.3909 7.1403 18.3743 7.68195C20.8759 8.38375 21.8467 11.2498 23.1343 13.2462C24.1168 14.9051 25.2977 16.3733 26.9064 14.1772C28.685 11.7492 29.5543 8.43021 30.1362 5.51371C30.3606 4.3886 30.3522 3.11275 30.5361 1.93126C30.7297 -0.0755491 33.419 -0.571191 34.449 1.02105C35.0393 1.93346 34.6507 4.84445 34.413 5.86134C33.6652 9.94851 32.1861 15.2647 28.986 18.1854C27.9919 19.0926 26.306 19.9081 24.9272 19.7715C21.9449 19.4759 20.2981 16.8981 18.9438 14.5414C18.5021 13.7728 18.0003 12.764 17.4523 12.1254C15.5416 14.9353 14.107 19.1987 10.1675 19.7699C8.80593 19.9673 7.01907 19.2477 5.96695 18.3477C2.30907 15.2187 0.960877 9.69777 0.196987 5.13757C0.0326897 4.05057 -0.251895 1.6257 0.460989 0.855661C0.968457 0.307525 1.37499 0.169421 2.07953 0.0994298Z" fill="var(--fill-0, white)"/>
<path id="Vector_4" d="M68.0308 0.102207C68.2569 0.084515 68.4837 0.0720102 68.7104 0.0646222C71.2578 -0.026885 73.7359 0.904259 75.5933 2.65067C77.4041 4.36566 79.5601 8.58484 77.4967 10.827C77.222 11.1258 76.604 11.5282 76.1952 11.5903C74.6591 11.8234 73.0051 11.7368 71.4412 11.7348L63.2846 11.7414C63.2885 11.754 63.2918 11.7667 63.2956 11.7793C63.7388 13.2918 64.765 14.566 66.1482 15.3212C68.2932 16.4732 71.1334 16.2459 73.1651 14.9161C73.9069 14.4309 74.5392 13.6557 75.3763 13.4144L75.4508 13.3935C77.4701 13.2589 78.5469 15.3073 77.314 16.6079C73.7048 20.414 66.8226 21.1882 62.7003 17.7569C60.721 16.1091 59.3346 13.7321 59.0781 11.137C58.7917 8.42165 59.6113 5.70547 61.3508 3.60152C63.0456 1.5218 65.3843 0.366425 68.0308 0.102207ZM63.2775 8.35542C65.293 8.40746 67.3875 8.37765 69.4095 8.37519C71 8.37519 72.8185 8.41764 74.3915 8.35315C73.7378 5.53224 71.3686 3.81817 68.4921 3.98731C66.7397 4.22204 65.3817 4.8263 64.2791 6.28147C63.8081 6.89772 63.4673 7.60334 63.2775 8.35542Z" fill="var(--fill-0, white)"/>
<path id="Vector_5" d="M81.1571 0.289048C83.5069 -0.0203394 83.9312 2.42139 84.6478 4.16165L87.2755 10.498C87.7523 11.6463 88.2084 12.8102 88.7474 13.9295C89.0098 14.4992 89.5929 15.0506 90.1015 14.3217C90.5964 13.6133 90.9696 12.5067 91.3019 11.708L94.0799 5.03271C94.5782 3.81843 95.0232 2.62346 95.6089 1.42628C96.4161 -0.222146 98.6668 -0.0746471 99.3846 1.49083C99.9003 2.61406 98.7238 4.71678 98.2548 5.84915C97.9017 6.59307 97.5518 7.49349 97.2208 8.25984C96.3688 10.203 95.5383 12.1553 94.7291 14.1165C94.3754 14.9625 93.4535 17.3005 93 17.9604C92.5296 18.6502 91.8688 19.1879 91.0985 19.5082C90.0788 19.9271 88.9334 19.9188 87.9195 19.485C87.3519 19.2462 86.4022 18.5781 86.1178 18.0622C85.3092 16.5949 84.6277 14.7708 83.9662 13.2248L81.323 6.96305C80.8267 5.79718 80.3052 4.63551 79.8212 3.46536C79.187 1.93378 79.6327 0.872569 81.1571 0.289048Z" fill="var(--fill-0, white)"/>
</g>
</svg>
