<svg preserveAspectRatio="none" width="100%" height="100%" overflow="visible" style="display: block;" viewBox="0 0 226.667 226.667" fill="none" xmlns="http://www.w3.org/2000/svg">
<g id="Group 2">
<rect id="Rectangle 14" width="226.667" height="226.667" rx="30" fill="url(#paint0_linear_0_240)" fill-opacity="0.2"/>
<path id="Vector" d="M92.1181 121.007C90.4588 122.069 91.0119 124.088 94.5517 125.044C98.2021 126.212 102.184 126.531 106.056 125.893C106.277 125.893 106.499 125.787 106.609 125.787V122.176L102.848 123.344C101.41 123.769 99.972 123.875 98.534 123.556C97.4278 123.238 97.649 122.6 98.9764 122.069L106.609 119.52V115.59L95.9897 119.095C94.6623 119.52 93.3349 120.157 92.1181 121.007ZM117.782 105.073V115.377C122.317 117.502 125.857 115.377 125.857 109.853C125.857 104.223 123.755 101.674 117.671 99.6557C114.463 98.5935 111.145 97.6374 107.826 97.0001V127.699L115.569 129.93V104.117C115.569 102.949 115.569 102.099 116.454 102.418C117.671 102.736 117.782 103.905 117.782 105.073ZM132.162 118.564C128.954 117.502 125.525 117.077 122.206 117.395C120.437 117.502 118.777 117.927 117.229 118.458L116.897 118.564V122.707L124.087 120.157C125.525 119.732 126.963 119.626 128.401 119.945C129.507 120.263 129.286 120.901 127.959 121.432L116.897 125.362V129.399L132.162 123.981C133.268 123.556 134.264 123.025 135.149 122.176C135.923 121.113 135.591 119.626 132.162 118.564Z" fill="var(--fill-0, white)"/>
</g>
<defs>
<linearGradient id="paint0_linear_0_240" x1="0" y1="113.333" x2="226.667" y2="113.333" gradientUnits="userSpaceOnUse">
<stop stop-color="#091226"/>
<stop offset="1" stop-color="#0A1324"/>
</linearGradient>
</defs>
</svg>
