<svg preserveAspectRatio="none" width="100%" height="100%" overflow="visible" style="display: block;" viewBox="0 0 12.0417 12.0417" fill="none" xmlns="http://www.w3.org/2000/svg">
<g id="icon/copyright">
<path id="Vector" d="M6.02083 11.0382C8.79185 11.0382 11.0382 8.79185 11.0382 6.02083C11.0382 3.24982 8.79185 1.00347 6.02083 1.00347C3.24982 1.00347 1.00347 3.24982 1.00347 6.02083C1.00347 8.79185 3.24982 11.0382 6.02083 11.0382Z" stroke="var(--stroke-0, #ADAEB0)" stroke-width="1.0625" stroke-linecap="round" stroke-linejoin="round"/>
<path id="Vector_2" d="M7.52593 4.69324C7.25628 4.38753 6.89993 4.17119 6.50429 4.07299C6.10866 3.97479 5.6925 3.9994 5.31119 4.14354C4.92989 4.28768 4.60151 4.54451 4.36977 4.87987C4.13802 5.21522 4.01389 5.61319 4.01389 6.02083C4.01389 6.42847 4.13802 6.82645 4.36977 7.1618C4.60151 7.49716 4.92989 7.75399 5.31119 7.89813C5.6925 8.04227 6.10866 8.06687 6.50429 7.96868C6.89993 7.87048 7.25628 7.65413 7.52593 7.34843" stroke="var(--stroke-0, #ADAEB0)" stroke-width="1.0625" stroke-linecap="round" stroke-linejoin="round"/>
</g>
</svg>
