<svg preserveAspectRatio="none" width="100%" height="100%" overflow="visible" style="display: block;" viewBox="0 0 213.937 63.1997" fill="none" xmlns="http://www.w3.org/2000/svg">
<g id="Sni&#204;&#129;mka obrazovky 2026-06-26 o 10.53.18 1 [Vectorized]">
<path id="Vector" d="M40.4368 16.4994C48.5332 16.3092 53.2894 21.2448 53.7635 29.1384C54.2788 37.7181 50.7943 44.3332 41.6354 44.9366C41.5816 44.9402 41.5277 44.9431 41.4739 44.9454C33.1806 45.2971 28.4999 39.221 28.3276 31.4504C28.1499 23.4422 31.7996 16.8465 40.4368 16.4994ZM41.9077 41.6694C44.3548 41.4393 46.3177 40.6307 47.897 38.6858C50.0701 36.0097 50.4231 32.1967 50.1534 28.9111C49.7083 23.4916 46.3918 19.5098 40.5987 19.7241C33.6325 20.1837 31.5373 26.1704 31.9636 32.1839C32.3837 38.1095 35.6879 41.8561 41.9077 41.6694Z" fill="var(--fill-0, #FDFDFD)"/>
<path id="Vector_2" d="M93.6111 23.2643C101.191 23.3596 103.296 28.5109 103.337 35.0807C98.5175 34.9052 92.4088 35.0629 87.5318 35.0721C87.6584 35.8495 87.7582 36.6518 88.0053 37.4018C88.5113 38.9369 89.5534 40.3958 91.0258 41.1345C91.9539 41.6 92.9977 41.7364 94.0266 41.7077C98.364 41.5864 98.9635 38.5157 99.8883 38.2096C100.772 38.4122 102.115 38.9031 103.046 39.1894C102.585 40.1401 102.177 40.8321 101.493 41.6541C98.1366 45.6839 91.2814 46.0374 87.3561 42.6393C82.96 38.8335 82.879 30.6108 86.5969 26.3033C88.3546 24.2667 91.0091 23.4258 93.6111 23.2643ZM87.6544 32.3697L94.2142 32.3681C95.9917 32.3699 98.0642 32.4206 99.818 32.3417C99.5822 30.8977 99.4152 29.9205 98.605 28.6371C97.57 26.9978 95.2722 25.9845 93.3484 26.381C89.7312 26.7625 88.1886 28.9329 87.6544 32.3697Z" fill="var(--fill-0, #FDFDFD)"/>
<path id="Vector_3" d="M60.8222 18.154C61.5952 18.1213 62.4982 18.1713 63.3 18.1588L63.3129 23.8894C66.6137 23.9267 70.0068 23.9123 73.3099 23.8895L73.306 18.2094C74.43 18.103 75.5565 18.1658 76.6814 18.2175L76.69 23.9074C77.1672 23.8614 78.3903 23.8964 78.914 23.895C80.2245 23.8895 81.5349 23.8699 82.845 23.8361L82.8447 26.6578C81.7139 26.659 79.8537 26.7131 78.7847 26.5856C77.9962 25.9587 77.3963 25.4323 76.6567 24.7469C76.804 27.8168 76.6499 31.4978 76.6661 34.6084C76.6942 40.0313 76.3603 42.4632 82.855 41.4456L82.8277 44.4317C80.1893 44.8321 76.9515 45.0542 74.8708 43.0555C73.3954 41.6381 73.3436 39.8561 73.3138 37.9586L73.3104 26.6658C70.7453 26.5835 68.0808 26.7017 65.4787 26.6263C64.6416 25.9629 64.0644 25.4778 63.2957 24.7403C63.4067 27.8659 63.2858 31.3649 63.2946 34.5068C63.3094 39.8447 62.9132 42.5257 69.5751 41.4308L69.5501 44.429C65.8524 44.9557 61.0938 45.0343 60.1451 40.4451C59.8086 38.8172 59.9313 36.5283 59.9331 34.8298L59.9461 26.6663C58.5576 26.6446 57.1689 26.6469 55.7804 26.6731L55.7928 23.926C57.0567 23.8677 58.6521 23.8981 59.9409 23.8915C59.9487 22.4301 59.8333 19.7105 59.9703 18.3588C60.2033 18.1645 60.4712 18.1967 60.8222 18.154Z" fill="var(--fill-0, #FDFDFD)"/>
<path id="Vector_4" d="M124.785 23.3492C127.138 22.9812 130.348 23.6376 132.251 25.0729C133.843 26.2745 134.425 27.4334 134.716 29.3322C133.573 29.5427 132.427 29.7361 131.279 29.9125C130.428 26.8087 127.791 26.088 124.883 26.4025C123.887 26.5008 122.774 27.0349 122.199 27.8736C120.206 30.8327 124.97 31.7691 126.905 32.279C129.528 32.9703 133.826 33.8705 134.618 36.9328C135.054 38.6206 134.69 41.0916 133.497 42.43C132.077 44.0223 130.205 44.5474 128.18 44.8571C124.785 45.0858 121.292 44.7076 118.995 41.8399C118.231 40.8859 117.988 40.0152 117.656 38.8774C118.444 38.6302 120.249 38.3968 121.112 38.2638C122.477 41.5126 124.899 42.1171 128.262 41.756C130.71 41.4932 132.558 38.4417 130.234 36.705C129.507 36.1615 128.241 35.9209 127.31 35.6173C124.368 34.659 119.095 34.0309 118.399 30.3164C117.762 26.0345 121.102 23.9257 124.785 23.3492Z" fill="var(--fill-0, #FDFDFD)"/>
<path id="Vector_5" d="M114.449 23.7811C115.108 23.7065 115.81 23.8053 116.473 23.8729L116.48 26.9894C115.939 26.9059 115.392 26.8687 114.845 26.8784C112.127 26.9171 110.155 28.7645 109.617 31.3597C109.19 33.4178 109.305 35.5914 109.304 37.6875C109.293 39.9159 109.3 42.1442 109.327 44.3723C108.52 44.3535 106.5 44.5745 105.944 44.1915L105.922 43.7556L105.921 30.6624C105.922 29.0557 106.023 25.3754 105.851 23.9136C106.754 23.8541 108.021 23.8906 108.951 23.8907C108.928 24.9077 108.951 25.958 108.961 26.9778C110.371 24.8643 111.955 24.0228 114.449 23.7811Z" fill="var(--fill-0, #FDFDFD)"/>
</g>
</svg>
