<svg preserveAspectRatio="none" width="100%" height="100%" overflow="visible" style="display: block;" viewBox="0 0 44.2734 31.3983" fill="none" xmlns="http://www.w3.org/2000/svg">
<path id="Vector" d="M0.896074 22.8904C-0.763209 23.9032 -0.210115 25.8276 3.32969 26.7392C6.98011 27.8533 10.9624 28.1572 14.8341 27.5495C15.0553 27.5495 15.2765 27.4482 15.3871 27.4482V24.0045L11.6261 25.1186C10.1881 25.5238 8.75001 25.6251 7.31197 25.3212C6.20578 25.0174 6.42702 24.4096 7.75444 23.9032L15.3871 21.4724V17.7248L4.76773 21.0672C3.44031 21.4724 2.11288 22.0801 0.896074 22.8904ZM26.5597 7.69765V17.5223C31.095 19.548 34.6348 17.5223 34.6348 12.2555C34.6348 6.88737 32.5331 4.45653 26.449 2.53212C23.2411 1.51927 19.9225 0.607709 16.604 0V29.2713L24.3473 31.3983V6.78608C24.3473 5.67195 24.3473 4.86167 25.2322 5.16553C26.449 5.46938 26.5597 6.58351 26.5597 7.69765ZM40.9401 20.5608C37.7322 19.548 34.303 19.1428 30.9844 19.4467C29.2145 19.548 27.5552 19.9531 26.0066 20.4595L25.6747 20.5608V24.5109L32.8649 22.0801C34.303 21.675 35.741 21.5737 37.1791 21.8775C38.2853 22.1814 38.064 22.7891 36.7366 23.2955L25.6747 27.043V30.8919L40.9401 25.7263C42.0463 25.3212 43.0419 24.8148 43.9268 24.0045C44.7011 22.9917 44.3693 21.5737 40.9401 20.5608Z" fill="var(--fill-0, white)"/>
</svg>
